<?xml version="1.0" encoding="utf-8"?>
<!-- Generator: Adobe Illustrator 21.1.0, SVG Export Plug-In . SVG Version: 6.00 Build 0)  -->
<svg version="1.1" id="Layer_1" xmlns="http://www.w3.org/2000/svg" xmlns:xlink="http://www.w3.org/1999/xlink" x="0px" y="0px"
	 viewBox="0 0 162 40" style="enable-background:new 0 0 162 40;" xml:space="preserve">
<style type="text/css">
	.st0{fill:none;}
	.st1{fill:#4A90E2;}
	.st2{fill:#595859;}
</style>
<g>
	<path class="st0" d="M129.2,30.3c-0.7,0-1.2,0.3-1.6,0.8s-0.6,1.3-0.6,2.3v0.5c0,1,0.2,1.8,0.6,2.3c0.4,0.5,0.9,0.8,1.6,0.8
		c0.7,0,1.2-0.3,1.6-0.8s0.6-1.3,0.6-2.3v-0.5c0-1-0.2-1.8-0.6-2.3C130.5,30.6,129.9,30.3,129.2,30.3z"/>
	<path class="st0" d="M141.6,30.8c-0.3-0.3-0.7-0.4-1.2-0.4h-1.7v3h1.6c0.5,0,0.9-0.1,1.3-0.4c0.3-0.3,0.4-0.6,0.4-1.1
		C142.1,31.4,141.9,31.1,141.6,30.8z"/>
	<polygon class="st0" points="63.5,34.8 66.2,34.8 64.9,31 	"/>
	<path class="st0" d="M41.9,30.3c-0.7,0-1.2,0.3-1.6,0.8c-0.4,0.5-0.6,1.3-0.6,2.3v0.5c0,1,0.2,1.8,0.6,2.3c0.4,0.5,0.9,0.8,1.6,0.8
		c0.7,0,1.2-0.3,1.6-0.8s0.6-1.3,0.6-2.3v-0.5c0-1-0.2-1.8-0.6-2.3C43.1,30.6,42.6,30.3,41.9,30.3z"/>
	<path class="st0" d="M5.1,30.8c-0.3-0.3-0.7-0.4-1.2-0.4H2.2v3h1.6c0.5,0,0.9-0.1,1.3-0.4c0.3-0.3,0.4-0.6,0.4-1.1
		C5.5,31.4,5.4,31.1,5.1,30.8z"/>
	<polygon class="st0" points="156,34.8 158.6,34.8 157.3,31 	"/>
	<polygon class="st1" points="16.4,1.1 0.2,1.1 0.2,4.4 6.2,4.4 6.2,21 10.3,21 10.3,4.4 16.4,4.4 	"/>
	<polygon class="st1" points="38.7,21 38.7,1.1 34.6,1.1 34.6,9.2 26.6,9.2 26.6,1.1 22.5,1.1 22.5,21 26.6,21 26.6,12.5 34.6,12.5 
		34.6,21 	"/>
	<polygon class="st1" points="50.1,12.3 58,12.3 58,9.2 50.1,9.2 50.1,4.4 59.3,4.4 59.3,1.1 46,1.1 46,21 59.3,21 59.3,17.7 
		50.1,17.7 	"/>
	<polygon class="st1" points="92.4,21 92.4,1.1 88.3,1.1 88.3,14.2 80.3,1.1 76.2,1.1 76.2,21 80.3,21 80.3,7.9 88.2,21 	"/>
	<polygon class="st1" points="103.8,12.3 111.6,12.3 111.6,9.2 103.8,9.2 103.8,4.4 113,4.4 113,1.1 99.7,1.1 99.7,21 113,21 
		113,17.7 103.8,17.7 	"/>
	<polygon class="st1" points="137.3,1.1 134.6,15.3 131.4,1.1 127.9,1.1 124.6,15.2 121.9,1.1 117.8,1.1 122.2,21 126.4,21 
		129.6,7.7 132.9,21 137,21 141.4,1.1 	"/>
	<path class="st1" d="M155.1,9.3c-1.3-0.4-2.2-0.8-2.9-1.2c-0.7-0.4-1-1-1-1.6c0-0.7,0.3-1.3,0.8-1.7c0.6-0.4,1.3-0.6,2.3-0.6
		c1,0,1.8,0.3,2.4,0.8s0.9,1.2,0.9,2.1h4.1c0-1.2-0.3-2.3-0.9-3.2s-1.5-1.7-2.6-2.2c-1.1-0.5-2.4-0.8-3.8-0.8
		c-1.4,0-2.7,0.2-3.8,0.7s-2,1.1-2.6,2c-0.6,0.8-0.9,1.8-0.9,2.9c0,2.1,1.1,3.7,3.4,4.9c0.8,0.4,2,0.9,3.4,1.4s2.4,0.9,3,1.3
		s0.8,1,0.8,1.8c0,0.7-0.3,1.3-0.8,1.7s-1.3,0.6-2.3,0.6c-2.6,0-3.9-1.1-3.9-3.3h-4.1c0,1.3,0.3,2.4,1,3.4c0.7,1,1.6,1.7,2.9,2.3
		s2.7,0.8,4.2,0.8c2.2,0,4-0.5,5.3-1.5c1.3-1,2-2.3,2-4.1c0-1.5-0.5-2.8-1.6-3.9S157.4,10,155.1,9.3z"/>
	<path class="st2" d="M6.6,33.4c0.3-0.4,0.4-0.9,0.4-1.5c0-0.9-0.3-1.6-0.9-2c-0.6-0.5-1.4-0.7-2.4-0.7H0.6v9.1h1.6v-3.5h1.8
		l1.8,3.5h1.7v-0.1l-2-3.8C5.9,34.1,6.3,33.8,6.6,33.4z M3.8,33.4H2.2v-3h1.7c0.6,0,1,0.1,1.2,0.4c0.3,0.3,0.4,0.6,0.4,1.1
		c0,0.5-0.1,0.8-0.4,1.1C4.7,33.3,4.3,33.4,3.8,33.4z"/>
	<polygon class="st2" points="12.7,34.1 16.5,34.1 16.5,32.9 12.7,32.9 12.7,30.4 17,30.4 17,29.1 11.1,29.1 11.1,38.2 17.1,38.2 
		17.1,36.9 12.7,36.9 	"/>
	<path class="st2" d="M24.5,34.7h1.9v1.8C26,36.9,25.4,37,24.6,37c-0.7,0-1.3-0.3-1.7-0.8c-0.4-0.5-0.6-1.3-0.6-2.3v-0.7
		c0-1,0.2-1.7,0.6-2.2s0.9-0.8,1.6-0.8c1.1,0,1.7,0.5,1.9,1.6h1.5c-0.1-0.9-0.5-1.7-1.1-2.2c-0.6-0.5-1.4-0.8-2.4-0.8
		c-1.2,0-2.1,0.4-2.8,1.2c-0.7,0.8-1,1.8-1,3.2v0.7c0,0.9,0.2,1.6,0.5,2.3c0.3,0.6,0.8,1.1,1.4,1.5c0.6,0.3,1.3,0.5,2,0.5
		c0.7,0,1.4-0.1,2-0.3s1-0.5,1.4-1v-3.5h-3.4V34.7z"/>
	<rect x="32.3" y="29.1" class="st2" width="1.6" height="9.1"/>
	<path class="st2" d="M43.8,29.5c-0.6-0.4-1.2-0.5-2-0.5s-1.4,0.2-2,0.5c-0.6,0.4-1,0.9-1.3,1.6c-0.3,0.7-0.5,1.5-0.5,2.3v0.5
		c0,0.9,0.2,1.6,0.5,2.3c0.3,0.7,0.8,1.2,1.3,1.5c0.6,0.4,1.2,0.5,2,0.5c0.7,0,1.4-0.2,2-0.5c0.6-0.4,1-0.9,1.3-1.5
		c0.3-0.7,0.5-1.5,0.5-2.3v-0.5c0-0.9-0.2-1.7-0.5-2.3S44.4,29.9,43.8,29.5z M44.1,33.9c0,1-0.2,1.8-0.6,2.3S42.6,37,41.9,37
		c-0.7,0-1.2-0.3-1.6-0.8c-0.4-0.5-0.6-1.3-0.6-2.3v-0.5c0-1,0.2-1.7,0.6-2.3c0.4-0.5,0.9-0.8,1.6-0.8c0.7,0,1.2,0.3,1.6,0.8
		c0.4,0.5,0.6,1.3,0.6,2.3V33.9z"/>
	<polygon class="st2" points="55.4,35.6 51.4,29.1 49.8,29.1 49.8,38.2 51.4,38.2 51.4,31.7 55.4,38.2 57,38.2 57,29.1 55.4,29.1 	
		"/>
	<path class="st2" d="M64.2,29.1l-3.4,9.1h1.6l0.7-2.1h3.5l0.7,2.1H69l-3.4-9.1H64.2z M63.5,34.8l1.3-3.8l1.3,3.8H63.5z"/>
	<polygon class="st2" points="74.2,29.1 72.6,29.1 72.6,38.2 78.3,38.2 78.3,36.9 74.2,36.9 	"/>
	<polygon class="st2" points="91.1,36.2 88.8,29.1 87,29.1 90.3,38.2 91.8,38.2 95.1,29.1 93.4,29.1 	"/>
	<rect x="98.8" y="29.1" class="st2" width="1.6" height="9.1"/>
	<path class="st2" d="M106.7,31c0.4-0.5,0.9-0.8,1.6-0.8c0.6,0,1,0.1,1.3,0.4c0.3,0.3,0.5,0.8,0.6,1.4h1.6c-0.1-1-0.5-1.8-1.1-2.3
		c-0.6-0.5-1.4-0.8-2.4-0.8c-0.7,0-1.4,0.2-2,0.5c-0.6,0.4-1,0.9-1.3,1.5c-0.3,0.7-0.5,1.4-0.5,2.3v0.8c0,0.8,0.2,1.6,0.5,2.2
		c0.3,0.6,0.7,1.1,1.3,1.5c0.6,0.3,1.2,0.5,1.9,0.5c1,0,1.9-0.3,2.5-0.8s1-1.3,1.1-2.3h-1.6c-0.1,0.7-0.3,1.1-0.6,1.4
		s-0.8,0.4-1.4,0.4c-0.7,0-1.2-0.3-1.5-0.8c-0.4-0.5-0.5-1.3-0.5-2.3v-0.8C106.2,32.2,106.4,31.5,106.7,31z"/>
	<polygon class="st2" points="115,30.4 117.8,30.4 117.8,38.2 119.3,38.2 119.3,30.4 122.2,30.4 122.2,29.1 115,29.1 	"/>
	<path class="st2" d="M131.2,29.5c-0.6-0.4-1.2-0.5-2-0.5c-0.7,0-1.4,0.2-2,0.5c-0.6,0.4-1,0.9-1.3,1.6c-0.3,0.7-0.5,1.5-0.5,2.3
		v0.5c0,0.9,0.2,1.6,0.5,2.3c0.3,0.7,0.8,1.2,1.3,1.5c0.6,0.4,1.2,0.5,2,0.5c0.7,0,1.4-0.2,2-0.5c0.6-0.4,1-0.9,1.3-1.5
		c0.3-0.7,0.5-1.5,0.5-2.3v-0.5c0-0.9-0.2-1.7-0.5-2.3S131.8,29.9,131.2,29.5z M131.4,33.9c0,1-0.2,1.8-0.6,2.3s-0.9,0.8-1.6,0.8
		c-0.7,0-1.2-0.3-1.6-0.8c-0.4-0.5-0.6-1.3-0.6-2.3v-0.5c0-1,0.2-1.7,0.6-2.3s0.9-0.8,1.6-0.8c0.7,0,1.2,0.3,1.6,0.8
		c0.4,0.5,0.6,1.3,0.6,2.3V33.9z"/>
	<path class="st2" d="M143.2,33.4c0.3-0.4,0.4-0.9,0.4-1.5c0-0.9-0.3-1.6-0.9-2c-0.6-0.5-1.4-0.7-2.4-0.7h-3.2v9.1h1.6v-3.5h1.8
		l1.8,3.5h1.7v-0.1l-2-3.8C142.5,34.1,142.9,33.8,143.2,33.4z M140.4,33.4h-1.6v-3h1.7c0.6,0,1,0.1,1.2,0.4s0.4,0.6,0.4,1.1
		c0,0.5-0.1,0.8-0.4,1.1C141.3,33.3,140.9,33.4,140.4,33.4z"/>
	<rect x="147.8" y="29.1" class="st2" width="1.6" height="9.1"/>
	<path class="st2" d="M156.6,29.1l-3.4,9.1h1.6l0.7-2.1h3.5l0.7,2.1h1.6l-3.4-9.1H156.6z M156,34.8l1.3-3.8l1.3,3.8H156z"/>
</g>
</svg>
